<svg width="96" height="96" viewBox="0 0 96 96" fill="none" xmlns="http://www.w3.org/2000/svg">
  <defs>
    <linearGradient id="halo" x1="22" y1="17" x2="76" y2="82" gradientUnits="userSpaceOnUse">
      <stop stop-color="#FFF8DF"/>
      <stop offset="0.45" stop-color="#F2D79C"/>
      <stop offset="1" stop-color="#D5A84D"/>
    </linearGradient>
    <linearGradient id="gold" x1="34" y1="28" x2="65" y2="68" gradientUnits="userSpaceOnUse">
      <stop stop-color="#F8E7B4"/>
      <stop offset="0.38" stop-color="#DDB66A"/>
      <stop offset="1" stop-color="#A96F16"/>
    </linearGradient>
    <linearGradient id="shine" x1="35" y1="31" x2="56" y2="59" gradientUnits="userSpaceOnUse">
      <stop stop-color="#FFFDF3" stop-opacity="0.92"/>
      <stop offset="1" stop-color="#FFFDF3" stop-opacity="0"/>
    </linearGradient>
    <filter id="shadow" x="8" y="8" width="80" height="82" filterUnits="userSpaceOnUse" color-interpolation-filters="sRGB">
      <feDropShadow dx="0" dy="5" stdDeviation="5" flood-color="#9B6515" flood-opacity="0.2"/>
    </filter>
  </defs>

  <circle cx="48" cy="48" r="34" fill="url(#halo)" stroke="#E7C67F" stroke-width="1.2"/>
  <circle cx="48" cy="48" r="28" fill="white" fill-opacity="0.18" stroke="white" stroke-opacity="0.7"/>

  <g filter="url(#shadow)">
    <path d="M31 41.5C36 36.8 40.8 36.2 46.2 40.1C51 43.6 55.3 43.5 60.4 39.2C62.1 37.7 64.3 36.5 66 36" stroke="url(#gold)" stroke-width="5" stroke-linecap="round"/>
    <path d="M29 50C34.2 45.4 39.4 44.9 44.5 48.8C50 53 55 52.9 60.5 48.3C62.7 46.5 64.7 45.6 67.5 45" stroke="url(#gold)" stroke-width="5" stroke-linecap="round"/>
    <path d="M31.5 58.5C36.1 55.1 40.7 54.9 45.2 58.1C50.2 61.8 55 61.6 60.1 57.4C62 55.9 63.8 55.1 66 55" stroke="url(#gold)" stroke-width="5" stroke-linecap="round"/>
  </g>

  <path d="M28.5 28.5C35.8 21.3 44.6 18.4 54.3 20.1" stroke="url(#shine)" stroke-width="4" stroke-linecap="round"/>

  <circle cx="72.5" cy="29.5" r="5.5" fill="#FFF8E6" stroke="#DEBB72" stroke-width="1.3"/>
  <circle cx="23" cy="61" r="4" fill="#FFF8E6" stroke="#E4C581" stroke-width="1.2"/>
  <circle cx="69" cy="67" r="3.2" fill="#FFFDF3" stroke="#E4C581" stroke-width="1.1"/>

  <path d="M22 31L23.7 35.3L28 37L23.7 38.7L22 43L20.3 38.7L16 37L20.3 35.3L22 31Z" fill="#C38A2D"/>
  <path d="M75 49L76 51.6L78.6 52.6L76 53.6L75 56.2L74 53.6L71.4 52.6L74 51.6L75 49Z" fill="#E7C275"/>
</svg>
